<?xml version="1.0" encoding="UTF-8"?>
<svg width="600px" height="600px" viewBox="0 0 600 600" version="1.1" xmlns="http://www.w3.org/2000/svg">
    <title>Grid Pattern</title>
    <defs>
        <linearGradient x1="0%" y1="0%" x2="100%" y2="100%" id="gridGradient">
            <stop stop-color="#9F7AEA" offset="0%"></stop>
            <stop stop-color="#6B46C1" offset="100%"></stop>
        </linearGradient>
    </defs>
    <g stroke="url(#gridGradient)" stroke-width="1" opacity="0.15">
        <!-- Horizontal lines -->
        <line x1="0" y1="50" x2="600" y2="50"></line>
        <line x1="0" y1="100" x2="600" y2="100"></line>
        <line x1="0" y1="150" x2="600" y2="150"></line>
        <line x1="0" y1="200" x2="600" y2="200"></line>
        <line x1="0" y1="250" x2="600" y2="250"></line>
        <line x1="0" y1="300" x2="600" y2="300"></line>
        <line x1="0" y1="350" x2="600" y2="350"></line>
        <line x1="0" y1="400" x2="600" y2="400"></line>
        <line x1="0" y1="450" x2="600" y2="450"></line>
        <line x1="0" y1="500" x2="600" y2="500"></line>
        <line x1="0" y1="550" x2="600" y2="550"></line>
        
        <!-- Vertical lines -->
        <line x1="50" y1="0" x2="50" y2="600"></line>
        <line x1="100" y1="0" x2="100" y2="600"></line>
        <line x1="150" y1="0" x2="150" y2="600"></line>
        <line x1="200" y1="0" x2="200" y2="600"></line>
        <line x1="250" y1="0" x2="250" y2="600"></line>
        <line x1="300" y1="0" x2="300" y2="600"></line>
        <line x1="350" y1="0" x2="350" y2="600"></line>
        <line x1="400" y1="0" x2="400" y2="600"></line>
        <line x1="450" y1="0" x2="450" y2="600"></line>
        <line x1="500" y1="0" x2="500" y2="600"></line>
        <line x1="550" y1="0" x2="550" y2="600"></line>
    </g>
</svg>
