<?xml version="1.0" encoding="UTF-8"?>
<svg width="800" height="600" viewBox="0 0 800 600" xmlns="http://www.w3.org/2000/svg">
  <style>
    .hex-grid { stroke: #9F7AEA; stroke-width: 1; fill: none; opacity: 0.3; }
    .hex-grid-highlight { stroke: #6B46C1; stroke-width: 1.5; fill: none; opacity: 0.5; }
    .node-point { fill: #9F7AEA; }
    .node-point-highlight { fill: #6B46C1; }
  </style>
  
  <defs>
    <pattern id="smallGrid" width="10" height="10" patternUnits="userSpaceOnUse">
      <path d="M 10 0 L 0 0 0 10" fill="none" stroke="#9F7AEA" stroke-width="0.5" opacity="0.2" />
    </pattern>
    <pattern id="grid" width="100" height="100" patternUnits="userSpaceOnUse">
      <rect width="100" height="100" fill="url(#smallGrid)" />
      <path d="M 100 0 L 0 0 0 100" fill="none" stroke="#9F7AEA" stroke-width="1" opacity="0.3" />
    </pattern>
  </defs>
  
  <!-- Background Grid -->
  <rect width="100%" height="100%" fill="url(#grid)" opacity="0.2" />
  
  <!-- Hexagonal Grid Pattern -->
  <g class="hex-grid">
    <!-- Row 1 -->
    <polygon points="100,50 150,80 150,140 100,170 50,140 50,80" />
    <polygon points="200,50 250,80 250,140 200,170 150,140 150,80" />
    <polygon points="300,50 350,80 350,140 300,170 250,140 250,80" />
    <polygon points="400,50 450,80 450,140 400,170 350,140 350,80" />
    <polygon points="500,50 550,80 550,140 500,170 450,140 450,80" />
    <polygon points="600,50 650,80 650,140 600,170 550,140 550,80" />
    <polygon points="700,50 750,80 750,140 700,170 650,140 650,80" />
    
    <!-- Row 2 -->
    <polygon points="150,170 200,200 200,260 150,290 100,260 100,200" />
    <polygon points="250,170 300,200 300,260 250,290 200,260 200,200" />
    <polygon points="350,170 400,200 400,260 350,290 300,260 300,200" />
    <polygon points="450,170 500,200 500,260 450,290 400,260 400,200" />
    <polygon points="550,170 600,200 600,260 550,290 500,260 500,200" />
    <polygon points="650,170 700,200 700,260 650,290 600,260 600,200" />
    
    <!-- Row 3 -->
    <polygon points="100,290 150,320 150,380 100,410 50,380 50,320" />
    <polygon points="200,290 250,320 250,380 200,410 150,380 150,320" />
    <polygon points="300,290 350,320 350,380 300,410 250,380 250,320" />
    <polygon points="400,290 450,320 450,380 400,410 350,380 350,320" />
    <polygon points="500,290 550,320 550,380 500,410 450,380 450,320" />
    <polygon points="600,290 650,320 650,380 600,410 550,380 550,320" />
    <polygon points="700,290 750,320 750,380 700,410 650,380 650,320" />
    
    <!-- Row 4 -->
    <polygon points="150,410 200,440 200,500 150,530 100,500 100,440" />
    <polygon points="250,410 300,440 300,500 250,530 200,500 200,440" />
    <polygon points="350,410 400,440 400,500 350,530 300,500 300,440" />
    <polygon points="450,410 500,440 500,500 450,530 400,500 400,440" />
    <polygon points="550,410 600,440 600,500 550,530 500,500 500,440" />
    <polygon points="650,410 700,440 700,500 650,530 600,500 600,440" />
  </g>
  
  <!-- Highlighted Hexagons -->
  <g class="hex-grid-highlight">
    <polygon points="300,170 350,200 350,260 300,290 250,260 250,200" />
    <polygon points="400,170 450,200 450,260 400,290 350,260 350,200" />
    <polygon points="350,290 400,320 400,380 350,410 300,380 300,320" />
    <polygon points="450,290 500,320 500,380 450,410 400,380 400,320" />
  </g>
  
  <!-- Connection Points -->
  <g>
    <!-- Intersection points -->
    <circle class="node-point" cx="250" cy="200" r="2" />
    <circle class="node-point" cx="300" cy="170" r="2" />
    <circle class="node-point" cx="350" cy="200" r="2" />
    <circle class="node-point" cx="350" cy="260" r="2" />
    <circle class="node-point" cx="300" cy="290" r="2" />
    <circle class="node-point" cx="250" cy="260" r="2" />
    
    <circle class="node-point" cx="350" cy="200" r="2" />
    <circle class="node-point" cx="400" cy="170" r="2" />
    <circle class="node-point" cx="450" cy="200" r="2" />
    <circle class="node-point" cx="450" cy="260" r="2" />
    <circle class="node-point" cx="400" cy="290" r="2" />
    <circle class="node-point" cx="350" cy="260" r="2" />
    
    <circle class="node-point" cx="300" cy="290" r="2" />
    <circle class="node-point" cx="350" cy="320" r="2" />
    <circle class="node-point" cx="400" cy="290" r="2" />
    <circle class="node-point" cx="400" cy="350" r="2" />
    <circle class="node-point" cx="350" cy="380" r="2" />
    <circle class="node-point" cx="300" cy="350" r="2" />
    
    <!-- Highlighted points -->
    <circle class="node-point-highlight" cx="300" cy="230" r="4" />
    <circle class="node-point-highlight" cx="400" cy="230" r="4" />
    <circle class="node-point-highlight" cx="350" cy="350" r="4" />
    <circle class="node-point-highlight" cx="450" cy="350" r="4" />
  </g>
  
  <!-- Digital Circuit Lines -->
  <g>
    <path d="M300,230 L400,230" stroke="#6B46C1" stroke-width="2" fill="none" />
    <path d="M300,230 L350,350" stroke="#6B46C1" stroke-width="2" fill="none" />
    <path d="M400,230 L450,350" stroke="#6B46C1" stroke-width="2" fill="none" />
    <path d="M350,350 L450,350" stroke="#6B46C1" stroke-width="2" fill="none" />
  </g>
</svg>
