<?xml version="1.0" encoding="UTF-8"?>
<svg width="500" height="300" viewBox="0 0 500 300" xmlns="http://www.w3.org/2000/svg">
  <style>
    .code-icon { fill: none; stroke: #9F7AEA; stroke-width: 2.5; opacity: 0.8; }
    .js { stroke: #F0DB4F; }
    .py { stroke: #306998; }
    .react { stroke: #61DAFB; }
    .html { stroke: #E34F26; }
    .css { stroke: #1572B6; }
  </style>
  
  <!-- JavaScript Logo -->
  <g transform="translate(50, 50)">
    <rect class="code-icon js" x="0" y="0" width="60" height="60" rx="5" />
    <text x="30" y="38" font-family="monospace" font-size="20" text-anchor="middle" fill="#F0DB4F">JS</text>
  </g>
  
  <!-- Python Logo -->
  <g transform="translate(130, 50)">
    <path class="code-icon py" d="M30,0 C13.4,0 15,13.4 15,13.4 L15,25 L45,25 L45,30 L9.4,30 C9.4,30 0,28.6 0,45 C0,61.4 8.2,60 8.2,60 L13,60 L13,48 C13,48 12.4,38 23,38 L38,38 C38,38 49,38.2 49,27 L49,15 C49,15 50.6,0 30,0 Z M22,10 C24.2,10 26,11.8 26,14 C26,16.2 24.2,18 22,18 C19.8,18 18,16.2 18,14 C18,11.8 19.8,10 22,10 Z" />
    <path class="code-icon py" d="M30,65 C46.6,65 45,51.6 45,51.6 L45,40 L15,40 L15,35 L50.6,35 C50.6,35 60,36.4 60,20 C60,3.6 51.8,5 51.8,5 L47,5 L47,17 C47,17 47.6,27 37,27 L22,27 C22,27 11,26.8 11,38 L11,50 C11,50 9.4,65 30,65 Z M38,55 C35.8,55 34,53.2 34,51 C34,48.8 35.8,47 38,47 C40.2,47 42,48.8 42,51 C42,53.2 40.2,55 38,55 Z" />
  </g>
  
  <!-- React Logo -->
  <g transform="translate(210, 50)">
    <circle class="code-icon react" cx="30" cy="30" r="5" />
    <ellipse class="code-icon react" cx="30" cy="30" rx="25" ry="10" transform="rotate(0 30 30)" />
    <ellipse class="code-icon react" cx="30" cy="30" rx="25" ry="10" transform="rotate(60 30 30)" />
    <ellipse class="code-icon react" cx="30" cy="30" rx="25" ry="10" transform="rotate(120 30 30)" />
  </g>
  
  <!-- HTML5 Logo -->
  <g transform="translate(290, 50)">
    <path class="code-icon html" d="M5,5 L15,55 L30,60 L45,55 L55,5 Z" />
    <path class="code-icon html" d="M15,20 L45,20 L43,40 L30,45 L17,40 L16,30 M25,20 L25,40 M35,20 L35,40" />
  </g>
  
  <!-- CSS3 Logo -->
  <g transform="translate(370, 50)">
    <path class="code-icon css" d="M5,5 L15,55 L30,60 L45,55 L55,5 Z" />
    <path class="code-icon css" d="M15,20 L45,20 L43,40 L30,45 L17,40 L16,30" />
    <path class="code-icon css" d="M20,27 L40,27 L39,35 L30,38 L21,35 Z" />
  </g>
  
  <!-- Additional Programming Elements -->
  <g transform="translate(50, 150)">
    <text x="0" y="15" font-family="monospace" font-size="15" fill="#9F7AEA">&lt;code&gt;</text>
    <path class="code-icon" d="M10,30 L30,50 L50,30" />
    <path class="code-icon" d="M60,20 L80,40 L60,60" />
    <path class="code-icon" d="M90,40 L110,40 M100,30 L100,50" />
    <path class="code-icon" d="M120,25 C120,25 130,20 140,25 C150,30 160,25 160,25" />
    <text x="170" y="40" font-family="monospace" font-size="15" fill="#9F7AEA">&lt;/code&gt;</text>
  </g>
  
  <g transform="translate(300, 150)">
    <rect class="code-icon" x="0" y="0" width="150" height="80" rx="5" />
    <text x="10" y="20" font-family="monospace" font-size="10" fill="#9F7AEA">function codeArt() {</text>
    <text x="20" y="40" font-family="monospace" font-size="10" fill="#9F7AEA">return awesome;</text>
    <text x="10" y="60" font-family="monospace" font-size="10" fill="#9F7AEA">}</text>
  </g>
  
  <!-- Animation elements that can be styled with CSS -->
  <circle class="pulse-circle" cx="250" cy="250" r="20" fill="none" stroke="#9F7AEA" stroke-width="2" />
  <circle class="pulse-circle delayed" cx="250" cy="250" r="30" fill="none" stroke="#9F7AEA" stroke-width="1.5" />
  <circle class="pulse-circle more-delayed" cx="250" cy="250" r="40" fill="none" stroke="#9F7AEA" stroke-width="1" />
</svg>
