<?xml version="1.0" encoding="UTF-8"?>
<svg width="600" height="400" viewBox="0 0 600 400" xmlns="http://www.w3.org/2000/svg">
  <style>
    .node { fill: var(--primary-color, #9F7AEA); }
    .connector { stroke: var(--primary-color, #9F7AEA); stroke-width: 1.5; stroke-dasharray: 5,5; opacity: 0.5; }
    .main-node { fill: var(--secondary-color, #6B46C1); }
    .node-pulse { 
      fill: var(--primary-color, #9F7AEA);
      opacity: 0.3; 
    }
    
    @keyframes pulse {
      0% { r: 8; opacity: 0.8; }
      50% { r: 15; opacity: 0.2; }
      100% { r: 8; opacity: 0.8; }
    }
    
    .node-pulse {
      animation: pulse 3s infinite;
    }
    
    .node-pulse:nth-child(odd) {
      animation-delay: 1.5s;
    }
  </style>
  
  <!-- Main Hub Node -->
  <circle class="main-node" cx="300" cy="200" r="20" />
  
  <!-- Connection Lines -->
  <line class="connector" x1="300" y1="200" x2="150" y2="100" />
  <line class="connector" x1="300" y1="200" x2="450" y2="100" />
  <line class="connector" x1="300" y1="200" x2="100" y2="200" />
  <line class="connector" x1="300" y1="200" x2="500" y2="200" />
  <line class="connector" x1="300" y1="200" x2="150" y2="300" />
  <line class="connector" x1="300" y1="200" x2="450" y2="300" />
  
  <!-- Secondary Connections -->
  <line class="connector" x1="150" y1="100" x2="100" y2="200" />
  <line class="connector" x1="450" y1="100" x2="500" y2="200" />
  <line class="connector" x1="100" y1="200" x2="150" y2="300" />
  <line class="connector" x1="500" y1="200" x2="450" y2="300" />
  <line class="connector" x1="150" y1="300" x2="450" y2="300" />
  <line class="connector" x1="150" y1="100" x2="450" y2="100" />
  
  <!-- Tertiary Connections -->
  <line class="connector" x1="150" y1="100" x2="220" y2="50" />
  <line class="connector" x1="450" y1="100" x2="380" y2="50" />
  <line class="connector" x1="100" y1="200" x2="50" y2="150" />
  <line class="connector" x1="500" y1="200" x2="550" y2="150" />
  <line class="connector" x1="150" y1="300" x2="220" y2="350" />
  <line class="connector" x1="450" y1="300" x2="380" y2="350" />
  
  <!-- Nodes -->
  <circle class="node" cx="150" cy="100" r="8" />
  <circle class="node" cx="450" cy="100" r="8" />
  <circle class="node" cx="100" cy="200" r="8" />
  <circle class="node" cx="500" cy="200" r="8" />
  <circle class="node" cx="150" cy="300" r="8" />
  <circle class="node" cx="450" cy="300" r="8" />
  
  <!-- Tertiary Nodes -->
  <circle class="node" cx="220" cy="50" r="5" />
  <circle class="node" cx="380" cy="50" r="5" />
  <circle class="node" cx="50" cy="150" r="5" />
  <circle class="node" cx="550" cy="150" r="5" />
  <circle class="node" cx="220" cy="350" r="5" />
  <circle class="node" cx="380" cy="350" r="5" />
  
  <!-- Pulse Effects -->
  <circle class="node-pulse" cx="300" cy="200" r="8" />
  <circle class="node-pulse" cx="150" cy="100" r="8" />
  <circle class="node-pulse" cx="450" cy="100" r="8" />
  <circle class="node-pulse" cx="100" cy="200" r="8" />
  <circle class="node-pulse" cx="500" cy="200" r="8" />
  <circle class="node-pulse" cx="150" cy="300" r="8" />
  <circle class="node-pulse" cx="450" cy="300" r="8" />
</svg>
