<?xml version="1.0" encoding="UTF-8"?>
<svg width="500px" height="500px" viewBox="0 0 500 500" version="1.1" xmlns="http://www.w3.org/2000/svg">
    <title>Tech Icons</title>
    <defs>
        <linearGradient x1="0%" y1="0%" x2="100%" y2="100%" id="techGradient">
            <stop stop-color="#9F7AEA" offset="0%"></stop>
            <stop stop-color="#6B46C1" offset="100%"></stop>
        </linearGradient>
    </defs>
    <g stroke="none" fill="url(#techGradient)">
        <!-- HTML Tag -->
        <path d="M80,80 L120,50 L160,80 L120,110 Z" opacity="0.7"></path>
        
        <!-- CSS Brackets -->
        <path d="M200,50 L230,50 L230,110 L200,110 L210,80 Z" opacity="0.7"></path>
        <path d="M250,50 L280,50 L270,80 L280,110 L250,110 Z" opacity="0.7"></path>
        
        <!-- JS Curly Braces -->
        <path d="M330,50 C340,50 350,60 350,70 C350,80 340,85 340,90 C340,95 350,100 350,110 C350,120 340,130 330,130" 
              stroke="url(#techGradient)" stroke-width="5" fill="none" opacity="0.7"></path>
        <path d="M400,50 C390,50 380,60 380,70 C380,80 390,85 390,90 C390,95 380,100 380,110 C380,120 390,130 400,130" 
              stroke="url(#techGradient)" stroke-width="5" fill="none" opacity="0.7"></path>
              
        <!-- React Logo -->
        <ellipse cx="120" cy="230" rx="60" ry="20" transform="rotate(60 120 230)" stroke="url(#techGradient)" 
                 stroke-width="4" fill="none" opacity="0.6"></ellipse>
        <ellipse cx="120" cy="230" rx="60" ry="20" transform="rotate(-60 120 230)" stroke="url(#techGradient)" 
                 stroke-width="4" fill="none" opacity="0.6"></ellipse>
        <ellipse cx="120" cy="230" rx="60" ry="20" stroke="url(#techGradient)" 
                 stroke-width="4" fill="none" opacity="0.6"></ellipse>
        <circle cx="120" cy="230" r="12" opacity="0.7"></circle>
        
        <!-- Node Logo -->
        <path d="M280,180 L340,215 L340,285 L280,320 L220,285 L220,215 Z" opacity="0.5"></path>
        <path d="M280,200 L325,225 L325,275 L280,300 L235,275 L235,225 Z" fill="#0A0514" opacity="0.9"></path>
        
        <!-- Database -->
        <ellipse cx="420" cy="200" rx="30" ry="15" opacity="0.7"></ellipse>
        <rect x="390" y="200" width="60" height="60" opacity="0.7"></rect>
        <ellipse cx="420" cy="260" rx="30" ry="15" opacity="0.7"></ellipse>
        
        <!-- Code Lines -->
        <rect x="80" y="370" width="100" height="6" rx="3" opacity="0.7"></rect>
        <rect x="80" y="390" width="150" height="6" rx="3" opacity="0.7"></rect>
        <rect x="80" y="410" width="120" height="6" rx="3" opacity="0.7"></rect>
        
        <!-- Terminal Window -->
        <rect x="250" y="350" width="170" height="90" rx="5" opacity="0.5"></rect>
        <rect x="250" y="350" width="170" height="20" rx="5" opacity="0.7"></rect>
        <path d="M270,390 L290,380 L270,370" stroke="url(#techGradient)" stroke-width="3" fill="none" opacity="0.9"></path>
        <rect x="300" y="380" width="60" height="6" rx="3" opacity="0.9"></rect>
    </g>
</svg>
