<?xml version="1.0" encoding="UTF-8"?>
<svg width="800px" height="600px" viewBox="0 0 800 600" version="1.1" xmlns="http://www.w3.org/2000/svg">
    <title>Tech Wave Background</title>
    <defs>
        <linearGradient x1="0%" y1="0%" x2="100%" y2="100%" id="purpleGradient">
            <stop stop-color="#9F7AEA" offset="0%"></stop>
            <stop stop-color="#6B46C1" offset="100%"></stop>
        </linearGradient>
    </defs>
    <g stroke="none" fill="none">
        <path d="M0,120 C200,80 350,190 500,150 C650,110 800,140 800,140 L800,600 L0,600 L0,120 Z" fill="url(#purpleGradient)" opacity="0.15"></path>
        <path d="M0,220 C220,180 350,290 500,250 C650,210 800,240 800,240 L800,600 L0,600 L0,220 Z" fill="url(#purpleGradient)" opacity="0.1"></path>
        <path d="M0,320 C240,280 380,390 520,350 C660,310 800,340 800,340 L800,600 L0,600 L0,320 Z" fill="url(#purpleGradient)" opacity="0.07"></path>
    </g>
</svg>
